<mxfile host="app.diagrams.net" modified="2024-07-08T12:55:21.061Z" agent="Mozilla/5.0 (X11; Ubuntu; Linux x86_64; rv:127.0) Gecko/20100101 Firefox/127.0" etag="VqXMmwobYhUldorGwF2b" version="24.6.4" type="github">
  <diagram name="Page-1" id="EoiSLaItOvC2wE9w15UQ">
    <mxGraphModel dx="1362" dy="795" grid="1" gridSize="10" guides="1" tooltips="1" connect="1" arrows="1" fold="1" page="1" pageScale="1" pageWidth="850" pageHeight="1100" math="1" shadow="0">
      <root>
        <mxCell id="0" />
        <mxCell id="1" parent="0" />
        <mxCell id="FkLBD33wjcTCplR7NHfs-6" value="" style="whiteSpace=wrap;html=1;fillColor=none;strokeColor=#999999;strokeWidth=3;" parent="1" vertex="1">
          <mxGeometry x="350" y="410" width="120" height="60" as="geometry" />
        </mxCell>
        <mxCell id="FkLBD33wjcTCplR7NHfs-8" value="" style="curved=1;endArrow=classic;html=1;rounded=0;strokeWidth=3;fillColor=#6666FF;strokeColor=#6666FF;" parent="1" edge="1">
          <mxGeometry width="50" height="50" relative="1" as="geometry">
            <mxPoint x="70" y="420" as="sourcePoint" />
            <mxPoint x="800" y="440" as="targetPoint" />
            <Array as="points">
              <mxPoint x="130" y="390" />
              <mxPoint x="210" y="440" />
              <mxPoint x="210" y="400" />
              <mxPoint x="290" y="470" />
              <mxPoint x="320" y="400" />
              <mxPoint x="410" y="460" />
              <mxPoint x="450" y="410" />
              <mxPoint x="500" y="470" />
              <mxPoint x="540" y="410" />
              <mxPoint x="640" y="450" />
            </Array>
          </mxGeometry>
        </mxCell>
        <mxCell id="FkLBD33wjcTCplR7NHfs-9" value="" style="endArrow=classic;html=1;rounded=0;strokeColor=#999999;strokeWidth=2;" parent="1" edge="1">
          <mxGeometry width="50" height="50" relative="1" as="geometry">
            <mxPoint x="472" y="440" as="sourcePoint" />
            <mxPoint x="592" y="510" as="targetPoint" />
            <Array as="points">
              <mxPoint x="522" y="510" />
            </Array>
          </mxGeometry>
        </mxCell>
        <mxCell id="FkLBD33wjcTCplR7NHfs-10" value="" style="ellipse;whiteSpace=wrap;html=1;aspect=fixed;fillColor=#FF0000;" parent="1" vertex="1">
          <mxGeometry x="466" y="433" width="8" height="8" as="geometry" />
        </mxCell>
        <mxCell id="FkLBD33wjcTCplR7NHfs-12" value="&lt;font style=&quot;font-size: 16px;&quot;&gt;Safety violation &lt;/font&gt;" style="text;html=1;align=center;verticalAlign=middle;resizable=0;points=[];autosize=1;strokeColor=none;fillColor=none;" parent="1" vertex="1">
          <mxGeometry x="582" y="497" width="130" height="30" as="geometry" />
        </mxCell>
        <mxCell id="FkLBD33wjcTCplR7NHfs-13" value="" style="endArrow=classic;html=1;rounded=0;exitX=0.425;exitY=1.05;exitDx=0;exitDy=0;exitPerimeter=0;" parent="1" source="FkLBD33wjcTCplR7NHfs-6" edge="1">
          <mxGeometry width="50" height="50" relative="1" as="geometry">
            <mxPoint x="400" y="570" as="sourcePoint" />
            <mxPoint x="401" y="520" as="targetPoint" />
          </mxGeometry>
        </mxCell>
        <mxCell id="FkLBD33wjcTCplR7NHfs-14" value="&lt;font style=&quot;font-size: 16px;&quot;&gt;Local dynamics &lt;/font&gt;" style="text;html=1;align=center;verticalAlign=middle;resizable=0;points=[];autosize=1;strokeColor=none;fillColor=none;" parent="1" vertex="1">
          <mxGeometry x="340" y="520" width="130" height="30" as="geometry" />
        </mxCell>
        <mxCell id="04Ysl-TV7akUZEYMBeJe-1" value="&lt;div style=&quot;font-size: 18px;&quot;&gt;&lt;font style=&quot;font-size: 18px;&quot;&gt;Trajectory $$\omega$$&lt;/font&gt;&lt;/div&gt;" style="text;html=1;align=center;verticalAlign=middle;resizable=0;points=[];autosize=1;strokeColor=none;fillColor=none;" vertex="1" parent="1">
          <mxGeometry x="575" y="390" width="210" height="40" as="geometry" />
        </mxCell>
      </root>
    </mxGraphModel>
  </diagram>
</mxfile>
